<svg xmlns="http://www.w3.org/2000/svg" xmlns:xlink="http://www.w3.org/1999/xlink" width="1587" zoomAndPan="magnify" viewBox="0 0 1190.25 1683.749949" height="2245" preserveAspectRatio="xMidYMid meet" version="1.0"><defs><g/><clipPath id="09ce4cfd8d"><path d="M 0 0.40625 L 1189.5 0.40625 L 1189.5 1683.09375 L 0 1683.09375 Z M 0 0.40625 " clip-rule="nonzero"/></clipPath><clipPath id="60a0daae1d"><path d="M 0 0.40625 L 1189.199219 0.40625 L 1189.199219 1682.667969 L 0 1682.667969 Z M 0 0.40625 " clip-rule="nonzero"/></clipPath><clipPath id="d0e42fad9a"><rect x="0" width="1190" y="0" height="1684"/></clipPath></defs><g clip-path="url(#09ce4cfd8d)"><path fill="#ffffff" d="M 0 0.40625 L 1189.5 0.40625 L 1189.5 1683.09375 L 0 1683.09375 Z M 0 0.40625 " fill-opacity="1" fill-rule="nonzero"/><g transform="matrix(1, 0, 0, 1, 0, 0.000000000000081102)"><g clip-path="url(#d0e42fad9a)"><g clip-path="url(#60a0daae1d)"><path fill="#efe7dd" d="M 0 0.40625 L 1189.199219 0.40625 L 1189.199219 1682.667969 L 0 1682.667969 Z M 0 0.40625 " fill-opacity="1" fill-rule="nonzero"/></g><g fill="#000000" fill-opacity="1"><g transform="translate(334.735133, 862.907997)"><g><path d="M 43.875 0 L 43.8125 -25.59375 L 31.265625 -4.515625 L 26.8125 -4.515625 L 14.3125 -25.046875 L 14.3125 0 L 5.0625 0 L 5.0625 -42.65625 L 13.21875 -42.65625 L 29.1875 -16.140625 L 44.90625 -42.65625 L 53.015625 -42.65625 L 53.140625 0 Z M 43.875 0 "/></g></g></g><g fill="#000000" fill-opacity="1"><g transform="translate(391.716086, 862.907997)"><g><path d="M 5.0625 -42.65625 L 14.921875 -42.65625 L 14.921875 0 L 5.0625 0 Z M 5.0625 -42.65625 "/></g></g></g><g fill="#000000" fill-opacity="1"><g transform="translate(410.486229, 862.907997)"><g><path d="M 19.078125 0.734375 C 15.703125 0.734375 12.4375 0.273438 9.28125 -0.640625 C 6.132812 -1.554688 3.609375 -2.742188 1.703125 -4.203125 L 5.0625 -11.640625 C 6.882812 -10.296875 9.054688 -9.21875 11.578125 -8.40625 C 14.097656 -7.59375 16.617188 -7.1875 19.140625 -7.1875 C 21.941406 -7.1875 24.007812 -7.601562 25.34375 -8.4375 C 26.6875 -9.269531 27.359375 -10.378906 27.359375 -11.765625 C 27.359375 -12.773438 26.960938 -13.613281 26.171875 -14.28125 C 25.378906 -14.957031 24.363281 -15.5 23.125 -15.90625 C 21.882812 -16.3125 20.207031 -16.757812 18.09375 -17.25 C 14.84375 -18.019531 12.179688 -18.789062 10.109375 -19.5625 C 8.035156 -20.332031 6.257812 -21.570312 4.78125 -23.28125 C 3.300781 -24.988281 2.5625 -27.265625 2.5625 -30.109375 C 2.5625 -32.578125 3.226562 -34.816406 4.5625 -36.828125 C 5.90625 -38.847656 7.925781 -40.445312 10.625 -41.625 C 13.332031 -42.800781 16.632812 -43.390625 20.53125 -43.390625 C 23.257812 -43.390625 25.921875 -43.0625 28.515625 -42.40625 C 31.117188 -41.757812 33.394531 -40.828125 35.34375 -39.609375 L 32.296875 -32.109375 C 28.359375 -34.347656 24.414062 -35.46875 20.46875 -35.46875 C 17.707031 -35.46875 15.664062 -35.019531 14.34375 -34.125 C 13.03125 -33.226562 12.375 -32.050781 12.375 -30.59375 C 12.375 -29.125 13.132812 -28.035156 14.65625 -27.328125 C 16.175781 -26.617188 18.5 -25.921875 21.625 -25.234375 C 24.875 -24.453125 27.535156 -23.675781 29.609375 -22.90625 C 31.679688 -22.132812 33.457031 -20.914062 34.9375 -19.25 C 36.425781 -17.582031 37.171875 -15.328125 37.171875 -12.484375 C 37.171875 -10.046875 36.488281 -7.820312 35.125 -5.8125 C 33.769531 -3.800781 31.726562 -2.207031 29 -1.03125 C 26.28125 0.144531 22.972656 0.734375 19.078125 0.734375 Z M 19.078125 0.734375 "/></g></g></g><g fill="#000000" fill-opacity="1"><g transform="translate(448.148481, 862.907997)"><g><path d="M 19.078125 0.734375 C 15.703125 0.734375 12.4375 0.273438 9.28125 -0.640625 C 6.132812 -1.554688 3.609375 -2.742188 1.703125 -4.203125 L 5.0625 -11.640625 C 6.882812 -10.296875 9.054688 -9.21875 11.578125 -8.40625 C 14.097656 -7.59375 16.617188 -7.1875 19.140625 -7.1875 C 21.941406 -7.1875 24.007812 -7.601562 25.34375 -8.4375 C 26.6875 -9.269531 27.359375 -10.378906 27.359375 -11.765625 C 27.359375 -12.773438 26.960938 -13.613281 26.171875 -14.28125 C 25.378906 -14.957031 24.363281 -15.5 23.125 -15.90625 C 21.882812 -16.3125 20.207031 -16.757812 18.09375 -17.25 C 14.84375 -18.019531 12.179688 -18.789062 10.109375 -19.5625 C 8.035156 -20.332031 6.257812 -21.570312 4.78125 -23.28125 C 3.300781 -24.988281 2.5625 -27.265625 2.5625 -30.109375 C 2.5625 -32.578125 3.226562 -34.816406 4.5625 -36.828125 C 5.90625 -38.847656 7.925781 -40.445312 10.625 -41.625 C 13.332031 -42.800781 16.632812 -43.390625 20.53125 -43.390625 C 23.257812 -43.390625 25.921875 -43.0625 28.515625 -42.40625 C 31.117188 -41.757812 33.394531 -40.828125 35.34375 -39.609375 L 32.296875 -32.109375 C 28.359375 -34.347656 24.414062 -35.46875 20.46875 -35.46875 C 17.707031 -35.46875 15.664062 -35.019531 14.34375 -34.125 C 13.03125 -33.226562 12.375 -32.050781 12.375 -30.59375 C 12.375 -29.125 13.132812 -28.035156 14.65625 -27.328125 C 16.175781 -26.617188 18.5 -25.921875 21.625 -25.234375 C 24.875 -24.453125 27.535156 -23.675781 29.609375 -22.90625 C 31.679688 -22.132812 33.457031 -20.914062 34.9375 -19.25 C 36.425781 -17.582031 37.171875 -15.328125 37.171875 -12.484375 C 37.171875 -10.046875 36.488281 -7.820312 35.125 -5.8125 C 33.769531 -3.800781 31.726562 -2.207031 29 -1.03125 C 26.28125 0.144531 22.972656 0.734375 19.078125 0.734375 Z M 19.078125 0.734375 "/></g></g></g><g fill="#000000" fill-opacity="1"><g transform="translate(485.810733, 862.907997)"><g><path d="M 5.0625 -42.65625 L 14.921875 -42.65625 L 14.921875 0 L 5.0625 0 Z M 5.0625 -42.65625 "/></g></g></g><g fill="#000000" fill-opacity="1"><g transform="translate(504.580875, 862.907997)"><g><path d="M 25.71875 0.734375 C 21.289062 0.734375 17.296875 -0.21875 13.734375 -2.125 C 10.179688 -4.039062 7.398438 -6.671875 5.390625 -10.015625 C 3.378906 -13.367188 2.375 -17.140625 2.375 -21.328125 C 2.375 -25.515625 3.378906 -29.28125 5.390625 -32.625 C 7.398438 -35.976562 10.179688 -38.609375 13.734375 -40.515625 C 17.296875 -42.429688 21.289062 -43.390625 25.71875 -43.390625 C 30.144531 -43.390625 34.125 -42.429688 37.65625 -40.515625 C 41.1875 -38.609375 43.96875 -35.976562 46 -32.625 C 48.03125 -29.28125 49.046875 -25.515625 49.046875 -21.328125 C 49.046875 -17.140625 48.03125 -13.367188 46 -10.015625 C 43.96875 -6.671875 41.1875 -4.039062 37.65625 -2.125 C 34.125 -0.21875 30.144531 0.734375 25.71875 0.734375 Z M 25.71875 -7.671875 C 28.238281 -7.671875 30.515625 -8.25 32.546875 -9.40625 C 34.578125 -10.570312 36.171875 -12.1875 37.328125 -14.25 C 38.484375 -16.320312 39.0625 -18.679688 39.0625 -21.328125 C 39.0625 -23.960938 38.484375 -26.316406 37.328125 -28.390625 C 36.171875 -30.460938 34.578125 -32.078125 32.546875 -33.234375 C 30.515625 -34.398438 28.238281 -34.984375 25.71875 -34.984375 C 23.195312 -34.984375 20.921875 -34.398438 18.890625 -33.234375 C 16.859375 -32.078125 15.265625 -30.460938 14.109375 -28.390625 C 12.953125 -26.316406 12.375 -23.960938 12.375 -21.328125 C 12.375 -18.679688 12.953125 -16.320312 14.109375 -14.25 C 15.265625 -12.1875 16.859375 -10.570312 18.890625 -9.40625 C 20.921875 -8.25 23.195312 -7.671875 25.71875 -7.671875 Z M 25.71875 -7.671875 "/></g></g></g><g fill="#000000" fill-opacity="1"><g transform="translate(554.79725, 862.907997)"><g><path d="M 44.171875 -42.65625 L 44.171875 0 L 36.078125 0 L 14.8125 -25.890625 L 14.8125 0 L 5.0625 0 L 5.0625 -42.65625 L 13.21875 -42.65625 L 34.421875 -16.75 L 34.421875 -42.65625 Z M 44.171875 -42.65625 "/></g></g></g><g fill="#000000" fill-opacity="1"><g transform="translate(602.819693, 862.907997)"><g/></g></g><g fill="#000000" fill-opacity="1"><g transform="translate(618.847428, 862.907997)"><g><path d="M 44.171875 -42.65625 L 44.171875 0 L 36.078125 0 L 14.8125 -25.890625 L 14.8125 0 L 5.0625 0 L 5.0625 -42.65625 L 13.21875 -42.65625 L 34.421875 -16.75 L 34.421875 -42.65625 Z M 44.171875 -42.65625 "/></g></g></g><g fill="#000000" fill-opacity="1"><g transform="translate(666.869871, 862.907997)"><g><path d="M 5.0625 -42.65625 L 14.921875 -42.65625 L 14.921875 0 L 5.0625 0 Z M 5.0625 -42.65625 "/></g></g></g><g fill="#000000" fill-opacity="1"><g transform="translate(685.640026, 862.907997)"><g><path d="M 33.875 -22 L 42.90625 -22 L 42.90625 -4.6875 C 40.582031 -2.945312 37.894531 -1.609375 34.84375 -0.671875 C 31.800781 0.265625 28.738281 0.734375 25.65625 0.734375 C 21.226562 0.734375 17.242188 -0.207031 13.703125 -2.09375 C 10.171875 -3.988281 7.398438 -6.609375 5.390625 -9.953125 C 3.378906 -13.304688 2.375 -17.097656 2.375 -21.328125 C 2.375 -25.554688 3.378906 -29.34375 5.390625 -32.6875 C 7.398438 -36.039062 10.191406 -38.660156 13.765625 -40.546875 C 17.347656 -42.441406 21.375 -43.390625 25.84375 -43.390625 C 29.570312 -43.390625 32.957031 -42.757812 36 -41.5 C 39.050781 -40.238281 41.613281 -38.410156 43.6875 -36.015625 L 37.359375 -30.15625 C 34.304688 -33.375 30.628906 -34.984375 26.328125 -34.984375 C 23.597656 -34.984375 21.175781 -34.410156 19.0625 -33.265625 C 16.957031 -32.128906 15.316406 -30.523438 14.140625 -28.453125 C 12.960938 -26.378906 12.375 -24.003906 12.375 -21.328125 C 12.375 -18.679688 12.960938 -16.320312 14.140625 -14.25 C 15.316406 -12.1875 16.953125 -10.570312 19.046875 -9.40625 C 21.140625 -8.25 23.523438 -7.671875 26.203125 -7.671875 C 29.046875 -7.671875 31.601562 -8.28125 33.875 -9.5 Z M 33.875 -22 "/></g></g></g><g fill="#000000" fill-opacity="1"><g transform="translate(731.407595, 862.907997)"><g><path d="M 44.171875 -42.65625 L 44.171875 0 L 34.3125 0 L 34.3125 -17.484375 L 14.921875 -17.484375 L 14.921875 0 L 5.0625 0 L 5.0625 -42.65625 L 14.921875 -42.65625 L 14.921875 -25.84375 L 34.3125 -25.84375 L 34.3125 -42.65625 Z M 44.171875 -42.65625 "/></g></g></g><g fill="#000000" fill-opacity="1"><g transform="translate(779.430038, 862.907997)"><g><path d="M 13.890625 -34.609375 L 0.25 -34.609375 L 0.25 -42.65625 L 37.421875 -42.65625 L 37.421875 -34.609375 L 23.765625 -34.609375 L 23.765625 0 L 13.890625 0 Z M 13.890625 -34.609375 "/></g></g></g><g fill="#000000" fill-opacity="1"><g transform="translate(815.873461, 862.907997)"><g><path d="M 19.078125 0.734375 C 15.703125 0.734375 12.4375 0.273438 9.28125 -0.640625 C 6.132812 -1.554688 3.609375 -2.742188 1.703125 -4.203125 L 5.0625 -11.640625 C 6.882812 -10.296875 9.054688 -9.21875 11.578125 -8.40625 C 14.097656 -7.59375 16.617188 -7.1875 19.140625 -7.1875 C 21.941406 -7.1875 24.007812 -7.601562 25.34375 -8.4375 C 26.6875 -9.269531 27.359375 -10.378906 27.359375 -11.765625 C 27.359375 -12.773438 26.960938 -13.613281 26.171875 -14.28125 C 25.378906 -14.957031 24.363281 -15.5 23.125 -15.90625 C 21.882812 -16.3125 20.207031 -16.757812 18.09375 -17.25 C 14.84375 -18.019531 12.179688 -18.789062 10.109375 -19.5625 C 8.035156 -20.332031 6.257812 -21.570312 4.78125 -23.28125 C 3.300781 -24.988281 2.5625 -27.265625 2.5625 -30.109375 C 2.5625 -32.578125 3.226562 -34.816406 4.5625 -36.828125 C 5.90625 -38.847656 7.925781 -40.445312 10.625 -41.625 C 13.332031 -42.800781 16.632812 -43.390625 20.53125 -43.390625 C 23.257812 -43.390625 25.921875 -43.0625 28.515625 -42.40625 C 31.117188 -41.757812 33.394531 -40.828125 35.34375 -39.609375 L 32.296875 -32.109375 C 28.359375 -34.347656 24.414062 -35.46875 20.46875 -35.46875 C 17.707031 -35.46875 15.664062 -35.019531 14.34375 -34.125 C 13.03125 -33.226562 12.375 -32.050781 12.375 -30.59375 C 12.375 -29.125 13.132812 -28.035156 14.65625 -27.328125 C 16.175781 -26.617188 18.5 -25.921875 21.625 -25.234375 C 24.875 -24.453125 27.535156 -23.675781 29.609375 -22.90625 C 31.679688 -22.132812 33.457031 -20.914062 34.9375 -19.25 C 36.425781 -17.582031 37.171875 -15.328125 37.171875 -12.484375 C 37.171875 -10.046875 36.488281 -7.820312 35.125 -5.8125 C 33.769531 -3.800781 31.726562 -2.207031 29 -1.03125 C 26.28125 0.144531 22.972656 0.734375 19.078125 0.734375 Z M 19.078125 0.734375 "/></g></g></g></g></g></g></svg>
